# Blender v2.79 (sub 0) OBJ File: ''
# www.blender.org
mtllib Tile.mtl
o Plane
v -1.000000 -0.000000 0.535226
v -0.991069 -0.000000 0.625898
v -0.964621 -0.000000 0.713087
v -0.921671 -0.000000 0.793440
v -0.863871 -0.000000 0.863871
v -0.793440 -0.000000 0.921671
v -0.713087 -0.000000 0.964621
v -0.625899 -0.000000 0.991069
v -0.535226 -0.000000 1.000000
v 0.535226 -0.000000 1.000000
v 0.625898 -0.000000 0.991069
v 0.713087 -0.000000 0.964621
v 0.793440 -0.000000 0.921671
v 0.863871 -0.000000 0.863871
v 0.921671 -0.000000 0.793440
v 0.964621 -0.000000 0.713087
v 0.991069 -0.000000 0.625899
v 1.000000 -0.000000 0.535226
v 1.000000 0.000000 -0.535226
v 0.991069 0.000000 -0.625898
v 0.964621 0.000000 -0.713087
v 0.921671 0.000000 -0.793440
v 0.863871 0.000000 -0.863871
v 0.793440 0.000000 -0.921671
v 0.713087 0.000000 -0.964621
v 0.625899 0.000000 -0.991069
v 0.535226 0.000000 -1.000000
v -0.535226 0.000000 -1.000000
v -0.625899 0.000000 -0.991069
v -0.713087 0.000000 -0.964621
v -0.793440 0.000000 -0.921671
v -0.863871 0.000000 -0.863871
v -0.921671 0.000000 -0.793440
v -0.964621 0.000000 -0.713087
v -0.991069 0.000000 -0.625898
v -1.000000 0.000000 -0.535226
v -1.000000 -0.099986 0.535226
v -1.000000 -0.099986 -0.535226
v -0.991069 -0.099986 -0.625898
v -0.964621 -0.099986 -0.713087
v -0.921671 -0.099986 -0.793440
v -0.863871 -0.099986 -0.863871
v -0.793440 -0.099983 -0.921671
v -0.713087 -0.099983 -0.964621
v -0.625899 -0.099986 -0.991069
v -0.535226 -0.099983 -1.000000
v 0.535226 -0.099983 -1.000000
v 0.625899 -0.099986 -0.991069
v 0.713087 -0.099983 -0.964621
v 0.793440 -0.099983 -0.921671
v 0.863871 -0.099986 -0.863871
v 0.921671 -0.099986 -0.793440
v 0.964621 -0.099986 -0.713087
v 0.991069 -0.099986 -0.625898
v 1.000000 -0.099986 -0.535226
v 1.000000 -0.099983 0.535226
v 0.991069 -0.099986 0.625899
v 0.964621 -0.099983 0.713087
v 0.921671 -0.099983 0.793440
v 0.863871 -0.099986 0.863871
v 0.793440 -0.099986 0.921671
v 0.713087 -0.099986 0.964621
v 0.625898 -0.099986 0.991069
v 0.535226 -0.099986 1.000000
v -0.535226 -0.099983 1.000000
v -0.625899 -0.099986 0.991069
v -0.713087 -0.099983 0.964621
v -0.793440 -0.099983 0.921671
v -0.863871 -0.099986 0.863871
v -0.921671 -0.099986 0.793440
v -0.964621 -0.099986 0.713087
v -0.991069 -0.099986 0.625898
vt 0.031696 0.246298
vt 0.035838 0.204243
vt 0.048105 0.163803
vt 0.068026 0.126534
vt 0.094835 0.093866
vt 0.127502 0.067058
vt 0.164772 0.047137
vt 0.205211 0.034869
vt 0.247267 0.030727
vt 0.743764 0.030727
vt 0.785819 0.034869
vt 0.826259 0.047137
vt 0.863528 0.067058
vt 0.896195 0.093866
vt 0.923004 0.126534
vt 0.942925 0.163803
vt 0.955192 0.204243
vt 0.959335 0.246298
vt 0.959335 0.742795
vt 0.955192 0.784850
vt 0.942925 0.825290
vt 0.923004 0.862559
vt 0.896195 0.895227
vt 0.863528 0.922035
vt 0.826259 0.941957
vt 0.785819 0.954224
vt 0.743764 0.958366
vt 0.247267 0.958366
vt 0.205211 0.954224
vt 0.164772 0.941957
vt 0.127502 0.922035
vt 0.094835 0.895227
vt 0.068026 0.862559
vt 0.048105 0.825290
vt 0.035838 0.784850
vt 0.031696 0.742795
vt 0.039815 0.250899
vt 0.039815 0.739104
vt 0.043888 0.780457
vt 0.055951 0.820222
vt 0.075539 0.856869
vt 0.101900 0.888990
vt 0.134022 0.915352
vt 0.170669 0.934940
vt 0.210433 0.947002
vt 0.251786 0.951076
vt 0.739992 0.951076
vt 0.781345 0.947002
vt 0.821110 0.934940
vt 0.857757 0.915352
vt 0.889878 0.888990
vt 0.916239 0.856869
vt 0.935828 0.820222
vt 0.947890 0.780457
vt 0.951963 0.739104
vt 0.951963 0.250899
vt 0.947890 0.209545
vt 0.935828 0.169781
vt 0.916240 0.133134
vt 0.889878 0.101012
vt 0.857757 0.074651
vt 0.821110 0.055063
vt 0.781345 0.043001
vt 0.739992 0.038927
vt 0.251787 0.038927
vt 0.210433 0.043001
vt 0.170669 0.055063
vt 0.134022 0.074651
vt 0.101900 0.101012
vt 0.075539 0.133134
vt 0.055951 0.169781
vt 0.043888 0.209546
vn -0.0000 1.0000 0.0000
vn 0.0000 -1.0000 -0.0000
vn -1.0000 0.0000 0.0000
vn -0.9952 0.0000 0.0980
vn -0.9569 0.0000 0.2903
vn -0.8819 0.0000 0.4714
vn -0.7730 0.0000 0.6344
vn -0.6344 0.0000 0.7730
vn -0.4714 0.0000 0.8819
vn -0.2903 0.0000 0.9569
vn -0.0980 0.0000 0.9952
vn 0.0000 0.0000 1.0000
vn 0.0980 0.0000 0.9952
vn 0.2903 0.0000 0.9569
vn 0.4714 0.0000 0.8819
vn 0.6344 0.0000 0.7730
vn 0.7730 0.0000 0.6344
vn 0.8819 0.0000 0.4714
vn 0.9569 0.0000 0.2903
vn 0.9952 0.0000 0.0980
vn 1.0000 0.0000 0.0000
vn 0.9952 0.0000 -0.0980
vn 0.9569 0.0000 -0.2903
vn 0.8819 0.0000 -0.4714
vn 0.7730 0.0000 -0.6344
vn 0.6344 0.0000 -0.7730
vn 0.4714 0.0000 -0.8819
vn 0.2903 0.0000 -0.9569
vn 0.0980 0.0000 -0.9952
vn 0.0000 0.0000 -1.0000
vn -0.0980 0.0000 -0.9952
vn -0.2903 0.0000 -0.9569
vn -0.4714 0.0000 -0.8819
vn -0.6344 0.0000 -0.7730
vn -0.7730 0.0000 -0.6344
vn -0.8819 0.0000 -0.4714
vn -0.9569 0.0000 -0.2903
vn -0.9952 0.0000 -0.0980
usemtl None
s 1
f 1/1/1 2/2/1 3/3/1 4/4/1 5/5/1 6/6/1 7/7/1 8/8/1 9/9/1 10/10/1 11/11/1 12/12/1 13/13/1 14/14/1 15/15/1 16/16/1 17/17/1 18/18/1 19/19/1 20/20/1 21/21/1 22/22/1 23/23/1 24/24/1 25/25/1 26/26/1 27/27/1 28/28/1 29/29/1 30/30/1 31/31/1 32/32/1 33/33/1 34/34/1 35/35/1 36/36/1
f 37/37/2 38/38/2 39/39/2 40/40/2 41/41/2 42/42/2 43/43/2 44/44/2 45/45/2 46/46/2 47/47/2 48/48/2 49/49/2 50/50/2 51/51/2 52/52/2 53/53/2 54/54/2 55/55/2 56/56/2 57/57/2 58/58/2 59/59/2 60/60/2 61/61/2 62/62/2 63/63/2 64/64/2 65/65/2 66/66/2 67/67/2 68/68/2 69/69/2 70/70/2 71/71/2 72/72/2
f 1/1/3 36/36/3 38/38/3 37/37/3
f 2/2/4 1/1/4 37/37/4 72/72/4
f 3/3/5 2/2/5 72/72/5 71/71/5
f 4/4/6 3/3/6 71/71/6 70/70/6
f 5/5/7 4/4/7 70/70/7 69/69/7
f 6/6/8 5/5/8 69/69/8 68/68/8
f 7/7/9 6/6/9 68/68/9 67/67/9
f 8/8/10 7/7/10 67/67/10 66/66/10
f 9/9/11 8/8/11 66/66/11 65/65/11
f 10/10/12 9/9/12 65/65/12 64/64/12
f 11/11/13 10/10/13 64/64/13 63/63/13
f 12/12/14 11/11/14 63/63/14 62/62/14
f 13/13/15 12/12/15 62/62/15 61/61/15
f 14/14/16 13/13/16 61/61/16 60/60/16
f 15/15/17 14/14/17 60/60/17 59/59/17
f 16/16/18 15/15/18 59/59/18 58/58/18
f 17/17/19 16/16/19 58/58/19 57/57/19
f 18/18/20 17/17/20 57/57/20 56/56/20
f 19/19/21 18/18/21 56/56/21 55/55/21
f 20/20/22 19/19/22 55/55/22 54/54/22
f 21/21/23 20/20/23 54/54/23 53/53/23
f 22/22/24 21/21/24 53/53/24 52/52/24
f 23/23/25 22/22/25 52/52/25 51/51/25
f 24/24/26 23/23/26 51/51/26 50/50/26
f 25/25/27 24/24/27 50/50/27 49/49/27
f 26/26/28 25/25/28 49/49/28 48/48/28
f 27/27/29 26/26/29 48/48/29 47/47/29
f 28/28/30 27/27/30 47/47/30 46/46/30
f 29/29/31 28/28/31 46/46/31 45/45/31
f 30/30/32 29/29/32 45/45/32 44/44/32
f 31/31/33 30/30/33 44/44/33 43/43/33
f 32/32/34 31/31/34 43/43/34 42/42/34
f 33/33/35 32/32/35 42/42/35 41/41/35
f 34/34/36 33/33/36 41/41/36 40/40/36
f 35/35/37 34/34/37 40/40/37 39/39/37
f 36/36/38 35/35/38 39/39/38 38/38/38
